solid ASCII
  facet normal -1.000000e+00 0.000000e+00 0.000000e+00
    outer loop
      vertex   -1.220000e+02 -3.000000e+00 -4.830000e+02
      vertex   -1.220000e+02 3.000000e+00 -4.830000e+02
      vertex   -1.220000e+02 -3.000000e+00 -4.850000e+02
    endloop
  endfacet
  facet normal -1.000000e+00 0.000000e+00 0.000000e+00
    outer loop
      vertex   -1.220000e+02 -3.000000e+00 -4.850000e+02
      vertex   -1.220000e+02 3.000000e+00 -4.830000e+02
      vertex   -1.220000e+02 3.000000e+00 -4.850000e+02
    endloop
  endfacet
  facet normal -0.000000e+00 0.000000e+00 1.000000e+00
    outer loop
      vertex   -1.220000e+02 3.000000e+00 -4.830000e+02
      vertex   -1.220000e+02 -3.000000e+00 -4.830000e+02
      vertex   -2.384186e-06 3.000000e+00 -4.830000e+02
    endloop
  endfacet
  facet normal 0.000000e+00 0.000000e+00 1.000000e+00
    outer loop
      vertex   -2.384186e-06 3.000000e+00 -4.830000e+02
      vertex   -1.220000e+02 -3.000000e+00 -4.830000e+02
      vertex   -2.384186e-06 -3.000000e+00 -4.830000e+02
    endloop
  endfacet
  facet normal 0.000000e+00 1.000000e+00 -2.467162e-17
    outer loop
      vertex   -2.384186e-06 -3.000000e+00 -4.470000e+02
      vertex   -2.384186e-06 -3.000000e+00 -4.830000e+02
      vertex   -1.220000e+02 -3.000000e+00 -4.470000e+02
    endloop
  endfacet
  facet normal 7.280151e-18 1.000000e+00 0.000000e+00
    outer loop
      vertex   -1.220000e+02 -3.000000e+00 -4.470000e+02
      vertex   -2.384186e-06 -3.000000e+00 -4.830000e+02
      vertex   -1.220000e+02 -3.000000e+00 -4.830000e+02
    endloop
  endfacet
  facet normal 0.000000e+00 1.000000e+00 0.000000e+00
    outer loop
      vertex   -1.220000e+02 -3.000000e+00 -4.470000e+02
      vertex   -1.220000e+02 -3.000000e+00 -4.830000e+02
      vertex   -1.580000e+02 -3.000000e+00 -4.850000e+02
    endloop
  endfacet
  facet normal 0.000000e+00 1.000000e+00 0.000000e+00
    outer loop
      vertex   -1.580000e+02 -3.000000e+00 -4.850000e+02
      vertex   -1.220000e+02 -3.000000e+00 -4.830000e+02
      vertex   -1.220000e+02 -3.000000e+00 -4.850000e+02
    endloop
  endfacet
  facet normal 0.000000e+00 1.000000e+00 0.000000e+00
    outer loop
      vertex   -1.580000e+02 -3.000000e+00 -4.850000e+02
      vertex   -1.580000e+02 -3.000000e+00 -3.950000e+02
      vertex   -1.220000e+02 -3.000000e+00 -4.470000e+02
    endloop
  endfacet
  facet normal 0.000000e+00 1.000000e+00 -0.000000e+00
    outer loop
      vertex   -1.220000e+02 -3.000000e+00 -4.470000e+02
      vertex   -1.580000e+02 -3.000000e+00 -3.950000e+02
      vertex   -1.220000e+02 -3.000000e+00 -3.950000e+02
    endloop
  endfacet
  facet normal 0.000000e+00 -1.000000e+00 2.467162e-17
    outer loop
      vertex   -2.384186e-06 3.000000e+00 -4.830000e+02
      vertex   -2.384186e-06 3.000000e+00 -4.470000e+02
      vertex   -1.220000e+02 3.000000e+00 -4.830000e+02
    endloop
  endfacet
  facet normal 0.000000e+00 -1.000000e+00 2.467162e-17
    outer loop
      vertex   -1.220000e+02 3.000000e+00 -4.830000e+02
      vertex   -2.384186e-06 3.000000e+00 -4.470000e+02
      vertex   -1.220000e+02 3.000000e+00 -4.470000e+02
    endloop
  endfacet
  facet normal -1.370646e-18 -1.000000e+00 2.467162e-17
    outer loop
      vertex   -1.220000e+02 3.000000e+00 -4.830000e+02
      vertex   -1.220000e+02 3.000000e+00 -4.470000e+02
      vertex   -1.580000e+02 3.000000e+00 -4.850000e+02
    endloop
  endfacet
  facet normal 2.467162e-17 -1.000000e+00 0.000000e+00
    outer loop
      vertex   -1.580000e+02 3.000000e+00 -4.850000e+02
      vertex   -1.220000e+02 3.000000e+00 -4.470000e+02
      vertex   -1.580000e+02 3.000000e+00 -3.950000e+02
    endloop
  endfacet
  facet normal 0.000000e+00 -1.000000e+00 -1.708035e-17
    outer loop
      vertex   -1.580000e+02 3.000000e+00 -3.950000e+02
      vertex   -1.220000e+02 3.000000e+00 -4.470000e+02
      vertex   -1.220000e+02 3.000000e+00 -3.950000e+02
    endloop
  endfacet
  facet normal 0.000000e+00 -1.000000e+00 0.000000e+00
    outer loop
      vertex   -1.580000e+02 3.000000e+00 -4.850000e+02
      vertex   -1.220000e+02 3.000000e+00 -4.850000e+02
      vertex   -1.220000e+02 3.000000e+00 -4.830000e+02
    endloop
  endfacet
  facet normal 0.000000e+00 0.000000e+00 -1.000000e+00
    outer loop
      vertex   -1.220000e+02 -3.000000e+00 -4.470000e+02
      vertex   -1.220000e+02 3.000000e+00 -4.470000e+02
      vertex   -2.384186e-06 -3.000000e+00 -4.470000e+02
    endloop
  endfacet
  facet normal 0.000000e+00 0.000000e+00 -1.000000e+00
    outer loop
      vertex   -2.384186e-06 -3.000000e+00 -4.470000e+02
      vertex   -1.220000e+02 3.000000e+00 -4.470000e+02
      vertex   -2.384186e-06 3.000000e+00 -4.470000e+02
    endloop
  endfacet
  facet normal -0.000000e+00 0.000000e+00 1.000000e+00
    outer loop
      vertex   -1.200000e+02 5.000000e+00 -4.450000e+02
      vertex   -1.200000e+02 -5.000000e+00 -4.450000e+02
      vertex   -2.384186e-06 5.000000e+00 -4.450000e+02
    endloop
  endfacet
  facet normal 0.000000e+00 0.000000e+00 1.000000e+00
    outer loop
      vertex   -2.384186e-06 5.000000e+00 -4.450000e+02
      vertex   -1.200000e+02 -5.000000e+00 -4.450000e+02
      vertex   -2.384186e-06 -5.000000e+00 -4.450000e+02
    endloop
  endfacet
  facet normal -0.000000e+00 0.000000e+00 -1.000000e+00
    outer loop
      vertex   -1.220000e+02 -3.000000e+00 -4.850000e+02
      vertex   -1.600000e+02 -5.000000e+00 -4.850000e+02
      vertex   -1.580000e+02 -3.000000e+00 -4.850000e+02
    endloop
  endfacet
  facet normal -0.000000e+00 0.000000e+00 -1.000000e+00
    outer loop
      vertex   -1.580000e+02 -3.000000e+00 -4.850000e+02
      vertex   -1.600000e+02 -5.000000e+00 -4.850000e+02
      vertex   -1.600000e+02 5.000000e+00 -4.850000e+02
    endloop
  endfacet
  facet normal 0.000000e+00 0.000000e+00 -1.000000e+00
    outer loop
      vertex   -1.580000e+02 -3.000000e+00 -4.850000e+02
      vertex   -1.600000e+02 5.000000e+00 -4.850000e+02
      vertex   -1.580000e+02 3.000000e+00 -4.850000e+02
    endloop
  endfacet
  facet normal 0.000000e+00 0.000000e+00 -1.000000e+00
    outer loop
      vertex   -1.580000e+02 3.000000e+00 -4.850000e+02
      vertex   -1.600000e+02 5.000000e+00 -4.850000e+02
      vertex   -1.220000e+02 3.000000e+00 -4.850000e+02
    endloop
  endfacet
  facet normal 0.000000e+00 0.000000e+00 -1.000000e+00
    outer loop
      vertex   -1.220000e+02 3.000000e+00 -4.850000e+02
      vertex   -1.600000e+02 5.000000e+00 -4.850000e+02
      vertex   -2.384186e-06 5.000000e+00 -4.850000e+02
    endloop
  endfacet
  facet normal 0.000000e+00 0.000000e+00 -1.000000e+00
    outer loop
      vertex   -1.220000e+02 3.000000e+00 -4.850000e+02
      vertex   -2.384186e-06 5.000000e+00 -4.850000e+02
      vertex   -2.384186e-06 -5.000000e+00 -4.850000e+02
    endloop
  endfacet
  facet normal 0.000000e+00 0.000000e+00 -1.000000e+00
    outer loop
      vertex   -1.600000e+02 -5.000000e+00 -4.850000e+02
      vertex   -1.220000e+02 -3.000000e+00 -4.850000e+02
      vertex   -2.384186e-06 -5.000000e+00 -4.850000e+02
    endloop
  endfacet
  facet normal 0.000000e+00 0.000000e+00 -1.000000e+00
    outer loop
      vertex   -2.384186e-06 -5.000000e+00 -4.850000e+02
      vertex   -1.220000e+02 -3.000000e+00 -4.850000e+02
      vertex   -1.220000e+02 3.000000e+00 -4.850000e+02
    endloop
  endfacet
  facet normal 1.000000e+00 0.000000e+00 0.000000e+00
    outer loop
      vertex   -2.384186e-06 3.000000e+00 -4.830000e+02
      vertex   -2.384186e-06 -3.000000e+00 -4.830000e+02
      vertex   -2.384186e-06 -5.000000e+00 -4.850000e+02
    endloop
  endfacet
  facet normal 1.000000e+00 0.000000e+00 0.000000e+00
    outer loop
      vertex   -2.384186e-06 -5.000000e+00 -4.850000e+02
      vertex   -2.384186e-06 -3.000000e+00 -4.830000e+02
      vertex   -2.384186e-06 -3.000000e+00 -4.470000e+02
    endloop
  endfacet
  facet normal 1.000000e+00 0.000000e+00 0.000000e+00
    outer loop
      vertex   -2.384186e-06 -5.000000e+00 -4.850000e+02
      vertex   -2.384186e-06 -3.000000e+00 -4.470000e+02
      vertex   -2.384186e-06 -5.000000e+00 -4.450000e+02
    endloop
  endfacet
  facet normal 1.000000e+00 0.000000e+00 0.000000e+00
    outer loop
      vertex   -2.384186e-06 -5.000000e+00 -4.450000e+02
      vertex   -2.384186e-06 -3.000000e+00 -4.470000e+02
      vertex   -2.384186e-06 3.000000e+00 -4.470000e+02
    endloop
  endfacet
  facet normal 1.000000e+00 -0.000000e+00 0.000000e+00
    outer loop
      vertex   -2.384186e-06 -5.000000e+00 -4.450000e+02
      vertex   -2.384186e-06 3.000000e+00 -4.470000e+02
      vertex   -2.384186e-06 5.000000e+00 -4.450000e+02
    endloop
  endfacet
  facet normal 1.000000e+00 0.000000e+00 0.000000e+00
    outer loop
      vertex   -2.384186e-06 5.000000e+00 -4.450000e+02
      vertex   -2.384186e-06 3.000000e+00 -4.470000e+02
      vertex   -2.384186e-06 3.000000e+00 -4.830000e+02
    endloop
  endfacet
  facet normal 1.000000e+00 0.000000e+00 0.000000e+00
    outer loop
      vertex   -2.384186e-06 5.000000e+00 -4.450000e+02
      vertex   -2.384186e-06 3.000000e+00 -4.830000e+02
      vertex   -2.384186e-06 5.000000e+00 -4.850000e+02
    endloop
  endfacet
  facet normal 1.000000e+00 0.000000e+00 0.000000e+00
    outer loop
      vertex   -2.384186e-06 5.000000e+00 -4.850000e+02
      vertex   -2.384186e-06 3.000000e+00 -4.830000e+02
      vertex   -2.384186e-06 -5.000000e+00 -4.850000e+02
    endloop
  endfacet
  facet normal 1.000000e+00 0.000000e+00 0.000000e+00
    outer loop
      vertex   -1.580000e+02 3.000000e+00 -3.950000e+02
      vertex   -1.580000e+02 -3.000000e+00 -3.950000e+02
      vertex   -1.580000e+02 3.000000e+00 -4.850000e+02
    endloop
  endfacet
  facet normal 1.000000e+00 0.000000e+00 0.000000e+00
    outer loop
      vertex   -1.580000e+02 3.000000e+00 -4.850000e+02
      vertex   -1.580000e+02 -3.000000e+00 -3.950000e+02
      vertex   -1.580000e+02 -3.000000e+00 -4.850000e+02
    endloop
  endfacet
  facet normal -1.000000e+00 0.000000e+00 0.000000e+00
    outer loop
      vertex   -1.220000e+02 -3.000000e+00 -3.950000e+02
      vertex   -1.220000e+02 3.000000e+00 -3.950000e+02
      vertex   -1.220000e+02 -3.000000e+00 -4.470000e+02
    endloop
  endfacet
  facet normal -1.000000e+00 0.000000e+00 0.000000e+00
    outer loop
      vertex   -1.220000e+02 -3.000000e+00 -4.470000e+02
      vertex   -1.220000e+02 3.000000e+00 -3.950000e+02
      vertex   -1.220000e+02 3.000000e+00 -4.470000e+02
    endloop
  endfacet
  facet normal -0.000000e+00 -1.000000e+00 -0.000000e+00
    outer loop
      vertex   -1.200000e+02 -5.000000e+00 -3.950000e+02
      vertex   -1.600000e+02 -5.000000e+00 -3.950000e+02
      vertex   -1.200000e+02 -5.000000e+00 -4.450000e+02
    endloop
  endfacet
  facet normal -0.000000e+00 -1.000000e+00 0.000000e+00
    outer loop
      vertex   -1.200000e+02 -5.000000e+00 -4.450000e+02
      vertex   -1.600000e+02 -5.000000e+00 -3.950000e+02
      vertex   -1.600000e+02 -5.000000e+00 -4.850000e+02
    endloop
  endfacet
  facet normal 0.000000e+00 -1.000000e+00 -0.000000e+00
    outer loop
      vertex   -1.200000e+02 -5.000000e+00 -4.450000e+02
      vertex   -1.600000e+02 -5.000000e+00 -4.850000e+02
      vertex   -2.384186e-06 -5.000000e+00 -4.850000e+02
    endloop
  endfacet
  facet normal 0.000000e+00 -1.000000e+00 0.000000e+00
    outer loop
      vertex   -2.384186e-06 -5.000000e+00 -4.850000e+02
      vertex   -2.384186e-06 -5.000000e+00 -4.450000e+02
      vertex   -1.200000e+02 -5.000000e+00 -4.450000e+02
    endloop
  endfacet
  facet normal 1.000000e+00 0.000000e+00 0.000000e+00
    outer loop
      vertex   -1.200000e+02 5.000000e+00 -3.950000e+02
      vertex   -1.200000e+02 -5.000000e+00 -3.950000e+02
      vertex   -1.200000e+02 5.000000e+00 -4.450000e+02
    endloop
  endfacet
  facet normal 1.000000e+00 0.000000e+00 0.000000e+00
    outer loop
      vertex   -1.200000e+02 5.000000e+00 -4.450000e+02
      vertex   -1.200000e+02 -5.000000e+00 -3.950000e+02
      vertex   -1.200000e+02 -5.000000e+00 -4.450000e+02
    endloop
  endfacet
  facet normal 0.000000e+00 1.000000e+00 0.000000e+00
    outer loop
      vertex   -1.200000e+02 5.000000e+00 -3.950000e+02
      vertex   -1.200000e+02 5.000000e+00 -4.450000e+02
      vertex   -1.600000e+02 5.000000e+00 -3.950000e+02
    endloop
  endfacet
  facet normal 0.000000e+00 1.000000e+00 0.000000e+00
    outer loop
      vertex   -1.600000e+02 5.000000e+00 -3.950000e+02
      vertex   -1.200000e+02 5.000000e+00 -4.450000e+02
      vertex   -1.600000e+02 5.000000e+00 -4.850000e+02
    endloop
  endfacet
  facet normal 0.000000e+00 1.000000e+00 0.000000e+00
    outer loop
      vertex   -1.600000e+02 5.000000e+00 -4.850000e+02
      vertex   -1.200000e+02 5.000000e+00 -4.450000e+02
      vertex   -2.384186e-06 5.000000e+00 -4.850000e+02
    endloop
  endfacet
  facet normal 0.000000e+00 1.000000e+00 -0.000000e+00
    outer loop
      vertex   -2.384186e-06 5.000000e+00 -4.850000e+02
      vertex   -1.200000e+02 5.000000e+00 -4.450000e+02
      vertex   -2.384186e-06 5.000000e+00 -4.450000e+02
    endloop
  endfacet
  facet normal -1.000000e+00 0.000000e+00 0.000000e+00
    outer loop
      vertex   -1.600000e+02 -5.000000e+00 -3.950000e+02
      vertex   -1.600000e+02 5.000000e+00 -3.950000e+02
      vertex   -1.600000e+02 -5.000000e+00 -4.850000e+02
    endloop
  endfacet
  facet normal -1.000000e+00 0.000000e+00 0.000000e+00
    outer loop
      vertex   -1.600000e+02 -5.000000e+00 -4.850000e+02
      vertex   -1.600000e+02 5.000000e+00 -3.950000e+02
      vertex   -1.600000e+02 5.000000e+00 -4.850000e+02
    endloop
  endfacet
  facet normal -0.000000e+00 0.000000e+00 1.000000e+00
    outer loop
      vertex   -1.580000e+02 -3.000000e+00 -3.950000e+02
      vertex   -1.600000e+02 -5.000000e+00 -3.950000e+02
      vertex   -1.220000e+02 -3.000000e+00 -3.950000e+02
    endloop
  endfacet
  facet normal 0.000000e+00 0.000000e+00 1.000000e+00
    outer loop
      vertex   -1.220000e+02 -3.000000e+00 -3.950000e+02
      vertex   -1.600000e+02 -5.000000e+00 -3.950000e+02
      vertex   -1.200000e+02 -5.000000e+00 -3.950000e+02
    endloop
  endfacet
  facet normal -0.000000e+00 0.000000e+00 1.000000e+00
    outer loop
      vertex   -1.220000e+02 -3.000000e+00 -3.950000e+02
      vertex   -1.200000e+02 -5.000000e+00 -3.950000e+02
      vertex   -1.200000e+02 5.000000e+00 -3.950000e+02
    endloop
  endfacet
  facet normal 0.000000e+00 -0.000000e+00 1.000000e+00
    outer loop
      vertex   -1.580000e+02 -3.000000e+00 -3.950000e+02
      vertex   -1.580000e+02 3.000000e+00 -3.950000e+02
      vertex   -1.600000e+02 -5.000000e+00 -3.950000e+02
    endloop
  endfacet
  facet normal 0.000000e+00 0.000000e+00 1.000000e+00
    outer loop
      vertex   -1.600000e+02 -5.000000e+00 -3.950000e+02
      vertex   -1.580000e+02 3.000000e+00 -3.950000e+02
      vertex   -1.600000e+02 5.000000e+00 -3.950000e+02
    endloop
  endfacet
  facet normal 0.000000e+00 0.000000e+00 1.000000e+00
    outer loop
      vertex   -1.600000e+02 5.000000e+00 -3.950000e+02
      vertex   -1.580000e+02 3.000000e+00 -3.950000e+02
      vertex   -1.220000e+02 3.000000e+00 -3.950000e+02
    endloop
  endfacet
  facet normal -0.000000e+00 0.000000e+00 1.000000e+00
    outer loop
      vertex   -1.600000e+02 5.000000e+00 -3.950000e+02
      vertex   -1.220000e+02 3.000000e+00 -3.950000e+02
      vertex   -1.200000e+02 5.000000e+00 -3.950000e+02
    endloop
  endfacet
  facet normal 0.000000e+00 0.000000e+00 1.000000e+00
    outer loop
      vertex   -1.200000e+02 5.000000e+00 -3.950000e+02
      vertex   -1.220000e+02 3.000000e+00 -3.950000e+02
      vertex   -1.220000e+02 -3.000000e+00 -3.950000e+02
    endloop
  endfacet
endsolid
